<?xml version="1.0" encoding="UTF-8" standalone="no"?><!DOCTYPE svg PUBLIC "-//W3C//DTD SVG 1.1//EN" "http://www.w3.org/Graphics/SVG/1.1/DTD/svg11.dtd"><svg width="200" height="100%" viewBox="0 0 33 6" version="1.1" xmlns="http://www.w3.org/2000/svg" xmlns:xlink="http://www.w3.org/1999/xlink" xml:space="preserve" xmlns:serif="http://www.serif.com/" style="fill-rule:evenodd;clip-rule:evenodd;stroke-linejoin:round;stroke-miterlimit:2;"><g><g><path d="M0.057,3.4l1.042,-1.152l1.89,2.087l0.004,-0.005l0.005,0.005l1.086,-1.2l1.066,1.177c-0.498,0.775 -1.368,1.289 -2.357,1.289c-1.34,0 -2.462,-0.943 -2.736,-2.201Z" style="fill:#e13738;"/><path d="M-0,2.59c0.108,-1.447 1.318,-2.59 2.793,-2.59c1.545,0 2.8,1.255 2.8,2.801c0,0.332 -0.058,0.651 -0.164,0.947l-1.297,-1.432l-0.001,-0l-0.047,-0.053l-1.091,1.205l-1.894,-2.092l0,0l0,0l-1.099,1.214Z" style="fill:#290f47;"/></g><text x="7.162px" y="4.163px" style="font-family:'Montserrat-ExtraBold', 'Montserrat';font-weight:800;font-size:4.053px;">COMMMISH</text></g></svg>