<?xml version="1.0" encoding="UTF-8" standalone="no"?><!DOCTYPE svg PUBLIC "-//W3C//DTD SVG 1.1//EN" "http://www.w3.org/Graphics/SVG/1.1/DTD/svg11.dtd"><svg width="100%" height="100%" viewBox="0 0 179 32" version="1.1" xmlns="http://www.w3.org/2000/svg" xmlns:xlink="http://www.w3.org/1999/xlink" xml:space="preserve" xmlns:serif="http://www.serif.com/" style="fill-rule:evenodd;clip-rule:evenodd;stroke-linejoin:round;stroke-miterlimit:2;"><g><g><path d="M0.314,18.888l5.792,-6.396l10.497,11.592l0.026,-0.028l0.025,0.028l6.036,-6.666l5.921,6.54c-2.767,4.305 -7.601,7.159 -13.096,7.159c-7.445,0 -13.675,-5.24 -15.201,-12.229Z" style="fill:#e13738;"/><path d="M-0,14.39c0.599,-8.042 7.322,-14.39 15.515,-14.39c8.587,0 15.559,6.972 15.559,15.559c-0,1.847 -0.323,3.619 -0.914,5.263l-7.206,-7.957l-0.002,0.001l-0.263,-0.291l-6.06,6.692l-10.523,-11.62l0,0l-0,-0l-6.106,6.743Z" style="fill:#290f47;"/></g><text x="39.788px" y="23.126px" style="font-family:'Montserrat-ExtraBold', 'Montserrat';font-weight:800;font-size:22.517px;">C<tspan x="56.068px " y="23.126px ">O</tspan>MMMISH</text></g></svg>