<?xml version="1.0" encoding="UTF-8" standalone="no"?><!DOCTYPE svg PUBLIC "-//W3C//DTD SVG 1.1//EN" "http://www.w3.org/Graphics/SVG/1.1/DTD/svg11.dtd"><svg width="600" height="100%" viewBox="0 0 134 24" version="1.1" xmlns="http://www.w3.org/2000/svg" xmlns:xlink="http://www.w3.org/1999/xlink" xml:space="preserve" xmlns:serif="http://www.serif.com/" style="fill-rule:evenodd;clip-rule:evenodd;stroke-linejoin:round;stroke-miterlimit:2;"><g><g><path d="M0.236,14.155l4.34,-4.793l7.867,8.687l0.019,-0.021l0.019,0.021l4.524,-4.995l4.437,4.901c-2.074,3.226 -5.696,5.365 -9.814,5.365c-5.58,0 -10.249,-3.927 -11.392,-9.165Z" style="fill:#fff;"/><path d="M0,10.784c0.449,-6.027 5.487,-10.784 11.628,-10.784c6.435,-0 11.66,5.225 11.66,11.66c-0,1.384 -0.242,2.713 -0.685,3.945l-5.401,-5.964l-0.001,0.001l-0.197,-0.218l-4.542,5.015l-7.886,-8.708l0,-0l-0,-0l-4.576,5.053Z" style="fill:#290f47;"/></g><text x="29.819px" y="17.332px" style="font-family:'Montserrat-ExtraBold', 'Montserrat';font-weight:800;font-size:16.875px;fill:#fff;">C<tspan x="42.019px " y="17.332px ">O</tspan>MMMISH</text></g></svg>